
<svg version="1.0" xmlns="http://www.w3.org/2000/svg"
 width="3360.000000pt" height="2100.000000pt" viewBox="0 0 3360.000000 2100.000000"
 preserveAspectRatio="xMidYMid meet">

<g transform="translate(0.000000,2100.000000) scale(0.100000,-0.100000)"
fill="#000000" stroke="none">
<path d="M0 20764 l0 -236 28 8 c15 5 2462 9 5457 9 l5430 0 42 -22 c51 -27
96 -82 112 -132 7 -26 11 -158 11 -402 0 -331 -2 -368 -19 -404 -23 -51 -89
-111 -138 -125 -46 -13 -10878 -10 -10905 4 -17 8 -18 -459 -18 -9728 l0
-9736 16800 0 16800 0 0 10500 0 10500 -16800 0 -16800 0 0 -236z m22750
-7749 c0 -13 -751 -15 -6695 -15 -5944 0 -6695 2 -6695 15 0 13 751 15 6695
15 5944 0 6695 -2 6695 -15z m-11320 -2505 l0 -379 31 -36 c74 -84 209 -54
239 54 6 21 10 187 10 389 l0 352 140 0 140 0 0 -504 c0 -333 4 -514 11 -533
39 -104 174 -121 239 -31 l30 41 0 514 0 513 226 0 c255 0 277 -5 316 -69 l23
-36 3 -792 2 -793 -1270 0 -1270 0 0 799 0 798 22 28 c12 15 35 36 52 46 29
18 59 19 544 19 l512 0 0 -380z m3975 346 c22 -9 41 -27 50 -48 9 -18 162
-509 340 -1091 255 -835 322 -1064 315 -1082 -19 -50 -103 -82 -155 -61 -37
16 -29 -6 -126 319 l-62 207 -432 0 -432 0 -68 -227 c-86 -291 -86 -290 -127
-301 -64 -17 -148 25 -148 75 0 21 620 2055 655 2149 25 68 109 94 190 60z
m1181 -27 c18 -11 50 -46 71 -78 21 -32 225 -427 453 -878 l415 -820 3 878 2
878 26 20 c19 15 41 21 76 21 62 0 83 -11 97 -51 14 -41 16 -2135 1 -2173 -21
-55 -107 -77 -159 -39 -14 11 -38 37 -52 59 -14 21 -160 300 -324 619 -164
319 -357 694 -429 834 l-131 255 -5 -866 c-5 -836 -6 -867 -24 -887 -38 -41
-124 -44 -167 -5 -19 17 -19 44 -19 1115 l0 1098 26 20 c35 27 96 27 140 0z
m2540 -12 c247 -83 373 -268 391 -573 11 -196 -26 -383 -96 -493 -48 -74 -132
-148 -213 -186 -134 -63 -163 -68 -490 -72 l-298 -5 0 -428 c0 -417 -1 -428
-21 -454 -38 -48 -134 -51 -171 -5 -17 20 -18 88 -18 1114 l0 1094 27 21 c27
21 32 21 418 18 l390 -4 81 -27z m1553 13 c224 -54 368 -188 428 -400 17 -60
18 -114 18 -730 0 -729 1 -715 -62 -848 -56 -118 -181 -221 -326 -268 -111
-36 -303 -45 -428 -20 -187 38 -336 143 -404 288 -67 141 -68 149 -72 788 -5
616 0 707 42 833 67 198 218 321 450 367 82 16 266 11 354 -10z m1085 -1 l26
-20 0 -1025 0 -1024 455 0 456 0 26 -26 c23 -23 25 -32 21 -80 -8 -95 33 -89
-551 -92 -584 -3 -587 -3 -607 66 -8 26 -10 371 -8 1110 l3 1074 24 19 c33 27
119 26 155 -2z m-8927 -2021 c-4 -62 -13 -136 -21 -163 -33 -108 -140 -221
-253 -266 l-58 -24 -955 0 c-861 0 -959 2 -998 16 -78 30 -147 79 -179 127
-53 79 -66 133 -71 285 l-4 137 1273 0 1272 0 -6 -112z m-847 -1255 c0 -550
-4 -608 -48 -701 -28 -59 -95 -123 -158 -151 -98 -44 -274 -51 -391 -16 -69
21 -140 71 -180 129 -67 98 -73 154 -73 754 l0 502 425 0 425 0 0 -517z m3765
-539 l0 -219 -27 -3 -28 -3 0 203 c0 170 3 207 16 226 34 49 39 23 39 -204z
m1833 -2 l2 -222 -30 0 -30 0 0 195 c0 158 3 202 16 226 32 63 39 32 42 -199z
m2012 87 l5 -135 55 67 c36 44 65 70 83 74 44 10 44 -1 1 -52 -22 -27 -45 -55
-52 -65 -11 -14 -7 -26 31 -85 73 -113 73 -113 39 -113 -25 0 -35 10 -73 70
l-43 69 -23 -21 c-18 -17 -23 -32 -23 -70 0 -48 -1 -49 -27 -46 l-28 3 -3 214
c-2 222 0 235 38 228 12 -2 16 -28 20 -138z m300 -84 l0 -225 -25 0 -25 0 0
200 c0 200 7 250 37 250 10 0 13 -44 13 -225z m1837 214 c22 -22 3 -39 -37
-33 -32 5 -40 3 -49 -14 -6 -11 -11 -32 -11 -46 0 -22 4 -26 30 -26 19 0 33
-6 37 -16 7 -19 -13 -34 -44 -34 -23 0 -23 -2 -23 -136 l0 -135 -27 3 -28 3
-3 131 c-2 122 -4 132 -22 137 -25 7 -26 37 -1 44 14 3 21 17 26 49 8 56 41
84 99 84 23 0 47 -5 53 -11z m2143 -215 l0 -225 -27 3 -28 3 -3 193 c-2 158 0
198 13 222 9 17 22 30 30 30 13 0 15 -33 15 -226z m140 0 l0 -225 -27 3 -28 3
-3 193 c-2 158 0 198 13 222 9 17 22 30 30 30 13 0 15 -33 15 -226z m-9173
205 c65 -24 110 -95 119 -187 12 -116 -38 -211 -128 -243 -61 -21 -42 -58 35
-68 28 -4 43 -11 45 -23 4 -20 -45 -33 -93 -24 -37 7 -85 56 -85 87 0 13 -7
19 -22 19 -42 0 -105 47 -130 97 -33 69 -33 200 0 259 23 39 63 71 107 86 33
10 122 9 152 -3z m3733 -11 c63 -32 100 -105 100 -197 0 -125 -35 -188 -120
-218 -44 -16 -47 -19 -38 -38 15 -28 28 -35 71 -35 20 0 37 -2 37 -4 0 -2 3
-11 6 -19 4 -12 -5 -17 -38 -22 -74 -11 -119 17 -141 86 -3 9 -21 19 -42 23
-47 9 -107 69 -123 122 -29 98 -7 230 46 277 55 50 170 61 242 25z m-2690 -18
c0 -25 -4 -30 -25 -30 -20 0 -25 5 -25 23 0 28 7 37 32 37 13 0 18 -8 18 -30z
m925 10 c8 -26 -1 -40 -26 -40 -22 0 -34 22 -25 45 8 22 44 18 51 -5z m2330
-10 c0 -18 -6 -26 -23 -28 -24 -4 -38 18 -28 44 3 9 15 14 28 12 17 -2 23 -10
23 -28z m1720 16 c40 -17 65 -60 65 -115 0 -92 -41 -122 -172 -129 l-88 -4 0
-85 0 -84 -27 3 -28 3 -3 200 c-1 110 0 205 2 212 8 19 205 18 251 -1z m1860
-6 c8 -26 -1 -40 -26 -40 -22 0 -34 22 -25 45 8 22 44 18 51 -5z m-6675 -50
l0 -40 41 0 c36 0 40 -2 37 -22 -2 -19 -10 -24 -41 -26 l-39 -3 4 -110 c3
-111 12 -137 46 -124 6 3 18 8 26 11 18 7 31 -27 14 -37 -7 -5 -30 -11 -52
-15 -35 -6 -43 -3 -63 20 -21 25 -23 37 -23 141 0 110 -1 114 -22 117 -15 2
-23 10 -23 23 0 13 8 21 23 23 12 2 22 10 22 17 0 25 23 65 37 65 9 0 13 -13
13 -40z m560 0 c0 -39 1 -40 34 -40 22 0 36 -6 40 -17 8 -20 -10 -33 -46 -33
l-28 0 0 -114 c0 -124 5 -135 55 -116 20 8 27 6 32 -6 7 -20 -10 -31 -60 -40
-32 -5 -43 -2 -61 15 -19 19 -21 35 -24 141 -3 113 -5 119 -25 122 -30 4 -30
42 1 46 13 2 22 10 22 20 0 24 28 62 46 62 10 0 14 -12 14 -40z m-1520 -158
c0 -128 9 -154 55 -166 31 -8 60 6 77 37 6 12 14 72 17 132 6 105 7 110 29
113 l22 3 0 -160 0 -161 -25 0 c-15 0 -25 6 -25 14 0 11 -8 10 -37 -5 -41 -21
-84 -24 -114 -9 -38 21 -49 62 -49 188 0 65 3 122 7 125 3 4 15 7 25 7 16 0
18 -10 18 -118z m485 95 c33 -28 44 -79 45 -204 l0 -93 -30 0 c-16 0 -30 4
-30 9 0 6 -17 3 -37 -6 -80 -33 -163 8 -163 80 1 58 46 89 148 103 46 6 52 9
52 30 0 32 -34 64 -67 64 -16 0 -43 -9 -62 -21 -36 -22 -59 -14 -47 16 17 45
147 60 191 22z m315 -137 l0 -160 -25 0 -25 0 0 153 c0 85 3 157 7 160 3 4 15
7 25 7 17 0 18 -12 18 -160z m515 138 c33 -29 44 -79 45 -200 0 -97 0 -98 -24
-98 -14 0 -27 4 -30 9 -3 5 -25 2 -48 -6 -79 -27 -142 -1 -154 63 -12 65 37
106 144 120 49 6 52 8 52 35 0 56 -66 75 -127 38 -37 -23 -61 -15 -49 16 17
45 147 60 191 23z m409 6 c3 -9 6 -81 6 -160 l0 -144 -30 0 -30 0 0 153 c0 85
3 157 7 160 12 13 41 7 47 -9z m155 -115 l43 -131 40 123 c22 68 46 127 52
131 17 11 46 9 46 -3 0 -6 -23 -78 -51 -160 l-52 -149 -32 0 -33 0 -51 147
c-29 81 -49 153 -47 160 3 7 14 13 23 13 15 0 28 -27 62 -131z m446 101 c29
-28 48 -82 43 -125 l-3 -30 -107 -3 c-65 -2 -108 -7 -108 -13 0 -26 32 -68 61
-78 44 -15 51 -14 92 13 35 24 57 20 57 -12 0 -23 -88 -55 -136 -49 -89 10
-128 62 -129 169 0 76 18 111 76 141 47 25 121 18 154 -13z m327 -102 l43
-133 40 128 c34 108 44 129 63 134 13 3 26 2 30 -2 7 -7 -59 -209 -110 -331
-34 -85 -53 -104 -108 -111 -40 -6 -42 -5 -38 18 2 17 8 23 21 21 24 -4 45 14
62 55 13 32 11 40 -41 184 -30 83 -52 155 -49 160 4 5 15 9 25 9 16 0 27 -24
62 -132z m1066 -1 l3 -128 32 -15 c41 -19 83 -6 97 31 6 15 10 73 10 130 0 95
2 104 20 110 11 3 24 3 30 0 6 -4 10 -68 10 -161 l0 -154 -25 0 c-14 0 -28 7
-32 15 -5 14 -8 14 -25 -2 -29 -26 -124 -25 -144 2 -24 33 -34 86 -34 192 0
103 4 114 40 110 12 -2 16 -25 18 -130z m340 -30 l3 -157 -31 0 -30 0 0 154
c0 158 2 168 40 163 12 -2 15 -29 18 -160z m290 143 c17 -11 32 -27 32 -35 0
-26 -28 -28 -56 -6 -83 65 -168 -33 -135 -156 9 -32 19 -44 46 -57 40 -19 68
-14 102 16 22 20 53 19 53 -2 0 -37 -94 -77 -156 -66 -127 24 -150 259 -31
311 46 20 107 18 145 -5z m619 -110 c30 -91 43 -120 48 -105 75 221 79 230
108 233 15 2 27 0 27 -5 0 -12 -106 -304 -132 -364 -13 -32 -31 -55 -49 -64
-33 -17 -75 -19 -84 -5 -10 17 14 39 35 33 15 -4 24 5 41 40 l22 46 -55 153
c-31 84 -53 157 -51 161 3 5 15 7 26 5 18 -2 29 -23 64 -128z m998 110 l6 -20
26 20 c34 27 83 27 83 1 0 -15 -8 -21 -32 -23 -24 -2 -38 -12 -55 -37 -20 -30
-23 -46 -23 -137 l0 -104 -30 0 -30 0 0 153 c0 85 3 157 7 160 13 14 42 6 48
-13z m391 -11 c76 -69 71 -214 -8 -272 -38 -28 -114 -33 -157 -10 -101 53
-102 243 -1 296 49 26 131 19 166 -14z m514 16 c38 -20 62 -66 64 -124 l1 -46
-107 -3 c-89 -2 -108 -5 -108 -18 0 -29 22 -56 57 -70 36 -16 67 -11 95 13 20
17 53 14 53 -6 0 -46 -124 -77 -188 -46 -99 47 -103 250 -6 298 43 21 101 22
139 2z m319 4 c32 -11 39 -27 21 -45 -8 -8 -25 -6 -56 4 -60 20 -97 5 -92 -36
3 -24 11 -29 65 -47 77 -25 105 -50 106 -98 1 -45 -32 -84 -80 -93 -47 -9
-118 4 -145 26 -21 17 -21 20 -8 34 14 15 19 14 55 -4 50 -25 80 -25 105 0 38
38 23 61 -54 84 -26 8 -58 21 -71 30 -26 17 -40 64 -30 96 16 50 110 75 184
49z m291 -4 c33 -17 37 -27 16 -44 -10 -8 -23 -7 -51 5 -44 18 -80 12 -95 -17
-16 -29 2 -46 68 -65 67 -20 102 -52 102 -94 0 -44 -16 -70 -55 -86 -45 -18
-95 -18 -145 2 -41 16 -49 31 -29 51 8 8 23 6 55 -9 57 -24 101 -17 110 18 8
33 -8 50 -69 69 -63 20 -97 55 -97 98 0 40 8 52 45 71 38 20 108 20 145 1z
m154 -1 c3 -9 6 -81 6 -160 l0 -144 -30 0 -30 0 0 153 c0 85 3 157 7 160 12
13 41 7 47 -9z m312 -15 c76 -69 71 -214 -8 -272 -38 -28 -114 -33 -157 -10
-101 53 -102 243 -1 296 49 26 131 19 166 -14z m174 11 c0 -20 0 -20 33 0 18
12 50 20 75 20 78 0 102 -51 102 -217 l0 -103 -30 0 -30 0 0 120 c0 107 -2
122 -20 140 -23 23 -67 26 -92 6 -24 -17 -37 -85 -38 -183 0 -82 0 -83 -25
-83 l-25 0 0 153 c0 85 3 157 7 160 15 15 43 7 43 -13z m473 11 c40 -15 57
-75 57 -201 0 -110 0 -110 -24 -110 -14 0 -27 4 -30 9 -3 5 -23 3 -43 -5 -76
-27 -134 -8 -152 49 -23 70 16 111 123 130 60 10 66 13 66 36 0 57 -72 81
-123 41 -30 -24 -43 -25 -51 -4 -9 24 -9 24 37 44 46 21 102 25 140 11z m491
-126 l41 -131 39 123 c22 67 44 127 50 133 17 17 46 12 46 -8 0 -10 -29 -99
-65 -198 -72 -200 -96 -234 -160 -234 -28 0 -35 4 -35 20 0 20 9 24 41 21 11
-1 25 15 38 42 l22 45 -56 152 c-30 84 -52 156 -49 162 3 5 15 8 26 6 17 -2
28 -26 62 -133z m-6194 -155 c0 -27 -3 -30 -30 -30 -27 0 -30 3 -30 30 0 27 3
30 30 30 27 0 30 -3 30 -30z m2318 -3 c3 -27 1 -28 -30 -25 -28 3 -34 7 -36
31 -3 27 -1 28 30 25 28 -3 34 -7 36 -31z"/>
<path d="M15150 9918 c-102 -335 -186 -616 -188 -624 -3 -12 54 -14 372 -14
207 0 376 2 376 5 0 10 -362 1220 -369 1231 -3 7 -89 -263 -191 -598z"/>
<path d="M18420 10166 l0 -496 238 0 c261 0 340 9 421 46 87 39 136 86 176
167 44 91 59 187 52 332 -11 227 -89 358 -249 416 -59 21 -82 23 -350 27
l-288 4 0 -496z"/>
<path d="M20365 10650 c-175 -35 -272 -136 -311 -320 -13 -64 -15 -159 -12
-665 4 -574 4 -592 26 -655 60 -182 196 -270 417 -270 230 0 366 97 423 303
15 56 17 124 17 657 0 643 -1 654 -55 761 -68 131 -208 201 -400 198 -36 -1
-83 -5 -105 -9z"/>
<path d="M14681 7155 c-37 -32 -55 -83 -54 -161 1 -104 41 -155 128 -162 66
-5 96 11 125 68 24 48 27 153 6 205 -31 73 -144 101 -205 50z"/>
<path d="M18409 7166 c-58 -33 -87 -166 -54 -252 21 -56 63 -84 123 -84 85 0
128 48 139 153 12 114 -37 188 -129 194 -34 2 -62 -2 -79 -11z"/>
<path d="M20672 7094 l3 -79 79 1 c70 0 81 3 97 23 26 31 24 83 -2 107 -16 14
-40 20 -100 23 l-80 3 3 -78z"/>
<path d="M15480 6930 c-38 -9 -60 -33 -60 -66 0 -30 14 -37 67 -36 58 0 73 15
73 68 0 49 -6 51 -80 34z"/>
<path d="M16318 6931 c-39 -9 -68 -37 -68 -65 0 -32 13 -39 67 -38 58 0 73 15
73 68 0 48 -6 51 -72 35z"/>
<path d="M17276 7048 c-14 -13 -28 -35 -32 -50 l-6 -28 86 0 c47 0 86 2 86 5
0 3 -6 21 -14 40 -24 57 -76 72 -120 33z"/>
<path d="M21308 7055 c-42 -23 -60 -108 -37 -173 13 -37 66 -66 105 -56 62 16
90 154 42 208 -29 32 -74 41 -110 21z"/>
<path d="M21849 7058 c-20 -16 -39 -52 -39 -72 0 -13 14 -16 80 -16 78 0 80 1
80 24 0 13 -8 33 -17 45 -22 26 -81 37 -104 19z"/>
<path d="M22904 7059 c-33 -17 -49 -56 -49 -120 0 -46 4 -62 23 -82 45 -48
108 -43 137 12 24 47 20 134 -7 165 -26 30 -73 40 -104 25z"/>
<path d="M23612 6930 c-95 -22 -95 -106 0 -103 54 3 68 17 68 69 0 48 -3 50
-68 34z"/>
<path d="M10010 20252 c0 -30 33 -52 77 -52 42 0 73 22 73 53 0 21 -38 23 -46
2 -4 -8 -14 -15 -24 -15 -10 0 -23 7 -30 15 -18 21 -50 19 -50 -3z"/>
<path d="M4841 20164 c-76 -120 -71 -319 12 -431 20 -27 25 -29 40 -18 17 12
16 17 -15 76 -31 61 -33 70 -33 169 0 101 2 108 34 168 29 53 32 65 20 73 -23
14 -28 11 -58 -37z"/>
<path d="M10343 20199 c-9 -9 -8 -18 7 -38 28 -41 60 -145 60 -199 0 -57 -23
-142 -54 -194 -16 -28 -18 -40 -9 -49 20 -20 40 -2 75 68 31 64 33 74 33 174
0 101 -2 109 -35 175 -35 69 -55 85 -77 63z"/>
<path d="M2027 20184 c-7 -8 11 -46 27 -56 6 -4 29 -8 52 -8 43 0 74 22 74 53
0 21 -38 23 -46 2 -4 -8 -17 -15 -30 -15 -14 0 -27 7 -30 15 -6 15 -35 20 -47
9z"/>
<path d="M5507 20169 c-80 -13 -127 -70 -134 -161 -7 -83 8 -127 56 -171 127
-115 310 -1 286 178 -15 114 -95 174 -208 154z m108 -69 c27 -22 48 -97 41
-142 -9 -54 -28 -83 -67 -104 -62 -32 -141 11 -155 83 -11 56 1 122 27 149 39
42 113 48 154 14z"/>
<path d="M6767 20169 c-80 -13 -127 -70 -134 -161 -7 -83 8 -127 56 -171 127
-115 310 -1 286 178 -15 114 -95 174 -208 154z m108 -69 c27 -22 48 -97 41
-142 -9 -54 -28 -83 -67 -104 -62 -32 -141 11 -155 83 -11 56 1 122 27 149 39
42 113 48 154 14z"/>
<path d="M440 19985 l0 -185 80 0 c47 0 95 6 115 14 76 32 88 148 19 192 -14
10 -55 20 -92 23 l-67 6 -3 43 -3 42 91 0 c89 0 91 1 88 23 -3 21 -7 22 -115
25 l-113 3 0 -186z m133 -5 c15 0 36 -9 47 -20 49 -49 4 -110 -81 -110 l-49 0
0 63 c0 70 5 81 35 73 11 -3 32 -6 48 -6z"/>
<path d="M5014 20157 c-2 -7 -3 -89 -2 -182 l3 -170 28 -3 27 -3 0 80 c0 45 3
81 6 81 15 0 96 -74 125 -115 27 -38 38 -45 66 -45 l34 0 -18 31 c-10 17 -48
61 -84 98 l-66 67 74 79 c40 44 73 83 73 88 0 4 -12 7 -27 7 -21 0 -46 -19
-105 -77 l-78 -78 0 78 c0 76 0 77 -25 77 -14 0 -28 -6 -31 -13z"/>
<path d="M5852 20162 c-9 -7 -12 -50 -10 -183 l3 -174 28 -3 c27 -3 27 -3 27
61 l0 65 53 7 c115 14 147 40 147 118 0 55 -27 93 -78 107 -44 12 -152 13
-170 2z m172 -61 c21 -18 20 -74 -2 -94 -9 -9 -41 -19 -70 -23 l-52 -7 0 73 0
72 54 -4 c30 -3 62 -10 70 -17z"/>
<path d="M6220 19985 l0 -185 30 0 30 0 0 160 0 160 80 0 80 0 0 -160 0 -160
30 0 30 0 0 185 0 185 -140 0 -140 0 0 -185z"/>
<path d="M7112 20162 c-9 -7 -12 -50 -10 -183 l3 -174 28 -3 c27 -3 27 -3 27
61 l0 65 53 7 c115 14 147 40 147 118 0 55 -27 93 -78 107 -44 12 -152 13
-170 2z m172 -61 c21 -18 20 -74 -2 -94 -9 -9 -41 -19 -70 -23 l-52 -7 0 73 0
72 54 -4 c30 -3 62 -10 70 -17z"/>
<path d="M7539 20123 c-44 -100 -119 -297 -119 -310 0 -10 9 -13 27 -11 21 2
29 11 41 46 l14 42 83 0 82 0 13 -45 c12 -42 15 -45 46 -45 l33 0 -25 68 c-31
81 -74 190 -103 255 -17 38 -25 47 -46 47 -21 0 -29 -8 -46 -47z m97 -158 c6
-25 5 -25 -55 -25 l-61 0 21 53 c46 114 38 109 65 49 13 -28 26 -63 30 -77z"/>
<path d="M7790 20145 c0 -24 3 -25 55 -25 l55 0 0 -160 0 -160 30 0 30 0 0
160 0 160 55 0 c52 0 55 1 55 25 l0 25 -140 0 -140 0 0 -25z"/>
<path d="M8180 19985 l0 -185 23 0 c17 1 37 24 86 100 36 54 79 116 97 137
l33 38 1 -137 0 -138 25 0 25 0 0 185 c0 176 -1 185 -19 185 -23 0 -81 -64
-160 -175 l-56 -80 -3 128 -3 127 -24 0 -25 0 0 -185z"/>
<path d="M8622 20162 c-9 -6 -12 -50 -10 -183 l3 -174 102 0 c99 0 103 1 132
29 42 41 44 105 4 142 -18 17 -23 28 -16 32 19 12 32 58 24 88 -13 49 -52 69
-144 72 -45 1 -88 -1 -95 -6z m168 -62 c24 -24 25 -32 3 -58 -12 -13 -36 -23
-70 -27 l-53 -7 0 56 0 56 50 0 c37 0 55 -5 70 -20z m-1 -143 c60 -31 38 -93
-38 -107 -72 -13 -81 -7 -81 61 l0 59 48 0 c26 0 58 -6 71 -13z"/>
<path d="M9010 19985 l0 -185 25 0 c25 0 25 1 25 85 l0 85 85 0 85 0 0 -85 0
-85 30 0 30 0 0 186 0 185 -27 -3 c-27 -3 -28 -5 -31 -75 l-3 -73 -84 0 -85 0
0 75 c0 73 -1 75 -25 75 l-25 0 0 -185z"/>
<path d="M9432 19988 l3 -183 75 -3 c91 -3 143 15 165 58 48 92 -22 177 -147
179 l-38 1 0 65 0 65 -30 0 -30 0 2 -182z m147 -9 c89 -31 55 -129 -45 -129
l-44 0 0 70 0 70 29 0 c15 0 42 -5 60 -11z"/>
<path d="M9740 19985 l0 -185 25 0 25 0 0 185 0 185 -25 0 -25 0 0 -185z"/>
<path d="M9940 19985 l0 -185 23 0 c17 1 37 24 86 100 36 54 79 116 97 137
l33 38 1 -137 0 -138 25 0 25 0 0 185 c0 176 -1 185 -19 185 -23 0 -81 -64
-160 -175 l-56 -80 -3 128 -3 127 -24 0 -25 0 0 -185z"/>
<path d="M859 20063 c-76 -47 -78 -198 -4 -247 18 -12 46 -18 86 -18 65 0 79
5 79 31 0 16 -8 18 -61 17 -52 -1 -63 2 -80 23 -36 44 -27 51 71 51 l90 0 0
34 c0 80 -40 126 -109 126 -25 0 -58 -8 -72 -17z m109 -51 c25 -32 15 -42 -48
-42 -64 0 -66 1 -49 31 20 38 70 43 97 11z"/>
<path d="M1210 20018 c0 -86 -15 -134 -50 -160 -38 -28 -40 -58 -4 -58 57 0
104 83 104 183 l0 47 40 0 40 0 0 -115 0 -115 30 0 30 0 0 140 0 140 -95 0
-95 0 0 -62z"/>
<path d="M1534 20067 c-2 -7 -3 -69 -2 -138 l3 -124 50 -5 c112 -11 165 18
165 89 0 54 -34 83 -105 89 l-55 4 0 49 c0 46 -2 49 -25 49 -14 0 -28 -6 -31
-13z m150 -153 c34 -33 3 -74 -56 -74 l-38 0 0 45 0 45 39 0 c23 0 46 -7 55
-16z"/>
<path d="M1800 19940 l0 -140 25 0 25 0 0 140 0 140 -25 0 -25 0 0 -140z"/>
<path d="M1990 19940 c0 -139 0 -140 23 -140 17 0 34 19 72 81 28 44 58 87 68
96 16 15 17 11 17 -80 0 -97 0 -97 25 -97 l25 0 0 141 0 140 -26 -3 c-21 -2
-42 -24 -90 -91 l-64 -89 0 91 c0 90 0 91 -25 91 l-25 0 0 -140z"/>
<path d="M2535 20068 c-3 -8 -4 -70 -3 -139 l3 -124 91 0 c76 0 96 3 113 19
28 25 29 86 1 111 -17 15 -17 19 -5 32 21 20 19 56 -4 84 -17 21 -29 24 -105
28 -67 2 -87 0 -91 -11z m156 -49 c16 -27 -9 -49 -56 -49 l-45 0 0 36 0 37 46
-6 c26 -2 50 -11 55 -18z m13 -122 c16 -26 -24 -57 -75 -57 -39 0 -39 0 -39
41 l0 40 51 -3 c37 -2 55 -8 63 -21z"/>
<path d="M2911 20054 c-33 -27 -46 -71 -43 -138 4 -79 53 -119 144 -118 66 1
82 9 72 36 -5 14 -14 16 -41 11 -47 -8 -98 10 -112 41 -6 14 -11 27 -11 29 0
3 40 5 89 5 50 0 92 4 95 9 13 21 -13 106 -39 128 -38 33 -113 32 -154 -3z
m114 -39 c38 -37 32 -45 -40 -45 -65 0 -65 0 -54 24 10 21 40 43 62 45 4 1 19
-10 32 -24z"/>
<path d="M3248 20074 c-16 -5 -18 -23 -18 -190 l0 -184 25 0 c24 0 25 3 25 54
l0 54 35 -8 c20 -5 51 -4 70 1 90 25 114 179 39 250 -20 19 -37 24 -92 26 -37
1 -75 -1 -84 -3z m141 -70 c27 -35 28 -103 2 -135 -13 -17 -28 -23 -54 -22
-20 1 -40 4 -46 8 -7 3 -11 42 -11 91 l0 84 44 0 c36 0 48 -5 65 -26z"/>
<path d="M3642 20067 c-82 -46 -83 -214 -1 -258 27 -14 127 -15 140 -2 5 5 7
17 4 25 -5 12 -19 16 -54 14 -57 -1 -77 13 -92 64 -10 32 -9 44 7 77 18 37 20
38 72 38 41 0 53 4 58 17 3 10 2 22 -1 28 -9 14 -106 12 -133 -3z"/>
<path d="M3890 19940 l0 -140 24 0 c20 0 37 18 88 97 l63 98 3 -98 c3 -96 3
-97 27 -97 l25 0 0 140 c0 129 -1 140 -18 140 -23 0 -56 -36 -113 -120 l-44
-65 -3 93 c-3 90 -3 92 -27 92 l-25 0 0 -140z"/>
<path d="M4278 20050 c-26 -27 -30 -36 -25 -68 4 -20 15 -44 25 -52 17 -13 17
-16 -10 -65 -34 -61 -34 -65 -4 -65 19 0 31 12 55 56 29 51 34 55 64 52 31 -3
32 -4 35 -55 3 -49 5 -53 28 -53 l25 0 -3 138 -3 137 -78 3 c-75 3 -79 2 -109
-28z m140 -57 l3 -43 -43 0 c-49 0 -68 13 -68 47 0 28 26 44 70 40 34 -2 35
-4 38 -44z"/>
</g>
</svg>
